<svg version="1.2" baseProfile="tiny-ps" xmlns="http://www.w3.org/2000/svg" viewBox="0 0 758 118" width="758" height="118">
	<style>
		tspan { white-space:pre }
		.shp0 { fill: #11ae87 } 
	</style>
	<g>
		<g>
			<g>
				<path fill-rule="evenodd" class="shp0" d="M108.97 58.98C108.97 92.28 81.48 115.98 42.37 115.98L0.77 115.98L0.77 2.15L42.37 2.15C81.48 2.15 108.97 25.68 108.97 58.98ZM79.97 58.98C79.97 40.74 66.07 27.83 46.67 27.83L29.12 27.83L29.12 90.3L46.67 90.3C66.07 90.3 79.97 77.18 79.97 58.98Z" />
				<path class="shp0" d="M139.47 45.21L139.47 70.55L225.5 70.55L225.5 45.21L139.47 45.21ZM139.47 2.15L139.47 27.49L225.5 27.49L225.5 2.15L139.47 2.15ZM139.47 90.6L139.47 115.98L225.5 115.98L225.5 90.6L139.47 90.6Z" />
				<path class="shp0" d="M364.94 2.15L332.29 2.15L307.59 36.09L283.24 2.15L249.95 2.15L267.8 26.97L291.03 59.28L267.8 91.33L249.95 115.98L282.6 115.98L307.29 81.82L331.81 115.98L364.94 115.98L324.03 58.81L364.94 2.15Z" />
				<path class="shp0" d="M447.35 90.6L447.35 2.15L419.18 2.15L419.18 115.98L502.21 115.98L502.21 90.6L447.35 90.6Z" />
				<path fill-rule="evenodd" class="shp0" d="M640.04 58.98C640.04 90.94 612.03 117.96 578.74 117.96C545.61 117.96 517.6 90.94 517.6 58.98C517.6 26.97 545.61 0.13 578.74 0.13C612.03 0.13 640.04 26.97 640.04 58.98ZM610.87 58.98C610.87 41.08 596.12 25.81 578.74 25.81C561.35 25.81 546.6 41.08 546.6 58.98C546.6 77 561.35 92.28 578.74 92.28C596.12 92.28 610.87 77 610.87 58.98Z" />
				<path class="shp0" d="M660.03 2.15L660.03 27.49L694.62 27.49L694.62 115.98L722.97 115.98L722.97 27.49L757.43 27.49L757.43 2.15L660.03 2.15Z" />
			</g>
		</g>
	</g>
</svg>